<svg width="24" height="24" viewBox="0 0 24 24" fill="none" xmlns="http://www.w3.org/2000/svg">
<path fill-rule="evenodd" clip-rule="evenodd" d="M2.5 12C2.5 6.47715 6.97715 2 12.5 2C18.0228 2 22.5 6.47715 22.5 12C22.5 17.5228 18.0228 22 12.5 22C6.97715 22 2.5 17.5228 2.5 12ZM16.7071 16.2061C16.3166 16.5967 15.6834 16.5967 15.2929 16.2061L12.5006 13.4138L9.70726 16.2071C9.31673 16.5977 8.68357 16.5977 8.29304 16.2071C7.90252 15.8166 7.90252 15.1834 8.29304 14.7929L11.0864 11.9996L8.29289 9.20613C7.90237 8.81561 7.90237 8.18244 8.29289 7.79192C8.68342 7.40139 9.31658 7.40139 9.70711 7.79192L12.5006 10.5854L15.293 7.79292C15.6836 7.4024 16.3167 7.4024 16.7073 7.79292C17.0978 8.18345 17.0978 8.81661 16.7073 9.20714L13.9148 11.9996L16.7071 14.7919C17.0976 15.1824 17.0976 15.8156 16.7071 16.2061Z" fill="#252849"/>
</svg>
