<svg width="24" height="24" viewBox="0 0 24 24" fill="none" xmlns="http://www.w3.org/2000/svg">
<path fill-rule="evenodd" clip-rule="evenodd" d="M7.00745 7.0072C7.398 6.6167 8.03117 6.61675 8.42166 7.0073L12 10.5861L15.5784 7.0073C15.9689 6.61675 16.602 6.6167 16.9926 7.0072C17.3831 7.3977 17.3832 8.03086 16.9927 8.42141L13.4141 12.0005L16.9923 15.5791C17.3828 15.9697 17.3828 16.6029 16.9922 16.9934C16.6017 17.3838 15.9685 17.3838 15.578 16.9933L12 13.4148L8.42202 16.9933C8.03152 17.3838 7.39835 17.3838 7.0078 16.9934C6.61725 16.6029 6.61721 15.9697 7.00771 15.5791L10.5859 12.0005L7.00735 8.42141C6.61686 8.03086 6.6169 7.3977 7.00745 7.0072Z" fill="#7C7E92" fill-opacity="0.56"/>
</svg>
