<svg width="64" height="64" viewBox="0 0 64 64" fill="none" xmlns="http://www.w3.org/2000/svg">
<path fill-rule="evenodd" clip-rule="evenodd" d="M58.6667 10.6667C58.6667 15.0849 55.0849 18.6667 50.6667 18.6667C47.1834 18.6667 44.2201 16.4405 43.1219 13.3333H18.6667C14.2484 13.3333 10.6667 16.9151 10.6667 21.3333V22.0247C10.6667 26.443 14.2484 30.0247 18.6667 30.0247H45.679C52.8519 30.0247 58.6667 35.8395 58.6667 43.0123C58.6667 50.1852 52.8519 56 45.679 56H41.1046L41.8857 56.7811C42.9271 57.8224 42.9271 59.5109 41.8857 60.5523C40.8443 61.5937 39.1559 61.5937 38.1145 60.5523L30.8955 53.3333L38.1145 46.1144C39.1559 45.073 40.8443 45.073 41.8857 46.1144C42.9271 47.1558 42.9271 48.8442 41.8857 49.8856L41.1046 50.6667H45.679C49.9064 50.6667 53.3333 47.2397 53.3333 43.0123C53.3333 38.785 49.9064 35.358 45.679 35.358H18.6667C11.3029 35.358 5.33333 29.3885 5.33333 22.0247V21.3333C5.33333 13.9695 11.3029 8 18.6667 8H43.1219C44.2201 4.89282 47.1834 2.66667 50.6667 2.66667C55.0849 2.66667 58.6667 6.24839 58.6667 10.6667ZM13.3333 61.3333C17.7516 61.3333 21.3333 57.7516 21.3333 53.3333C21.3333 48.9151 17.7516 45.3333 13.3333 45.3333C8.91506 45.3333 5.33333 48.9151 5.33333 53.3333C5.33333 57.7516 8.91506 61.3333 13.3333 61.3333Z" fill="#7C7E92" fill-opacity="0.56"/>
</svg>
