<svg width="40" height="40" viewBox="0 0 40 40" fill="none" xmlns="http://www.w3.org/2000/svg">
<path d="M0 19.2C0 12.4794 0 9.11905 1.30792 6.55211C2.4584 4.29417 4.29417 2.4584 6.55211 1.30792C9.11905 0 12.4794 0 19.2 0H20.8C27.5206 0 30.8809 0 33.4479 1.30792C35.7058 2.4584 37.5416 4.29417 38.6921 6.55211C40 9.11905 40 12.4794 40 19.2V20.8C40 27.5206 40 30.8809 38.6921 33.4479C37.5416 35.7058 35.7058 37.5416 33.4479 38.6921C30.8809 40 27.5206 40 20.8 40H19.2C12.4794 40 9.11905 40 6.55211 38.6921C4.29417 37.5416 2.4584 35.7058 1.30792 33.4479C0 30.8809 0 27.5206 0 20.8V19.2Z" fill="#6ADA6F"/>
<path fill-rule="evenodd" clip-rule="evenodd" d="M30 12C30 13.6569 28.6569 15 27 15C25.6938 15 24.5825 14.1652 24.1707 13H15C13.3431 13 12 14.3431 12 16V16.2593C12 17.9161 13.3431 19.2593 15 19.2593H25.1296C27.8195 19.2593 30 21.4398 30 24.1296C30 26.8195 27.8195 29 25.1296 29H23.4142L23.7071 29.2929C24.0977 29.6834 24.0977 30.3166 23.7071 30.7071C23.3166 31.0976 22.6834 31.0976 22.2929 30.7071L19.5858 28L22.2929 25.2929C22.6834 24.9024 23.3166 24.9024 23.7071 25.2929C24.0977 25.6834 24.0977 26.3166 23.7071 26.7071L23.4142 27H25.1296C26.7149 27 28 25.7149 28 24.1296C28 22.5444 26.7149 21.2593 25.1296 21.2593H15C12.2386 21.2593 10 19.0207 10 16.2593V16C10 13.2386 12.2386 11 15 11H24.1707C24.5825 9.83481 25.6938 9 27 9C28.6569 9 30 10.3431 30 12ZM13 31C14.6569 31 16 29.6569 16 28C16 26.3431 14.6569 25 13 25C11.3431 25 10 26.3431 10 28C10 29.6569 11.3431 31 13 31Z" fill="white"/>
</svg>
